<svg id="flag" xmlns="http://www.w3.org/2000/svg" style="height: 552.883px;"><rect width="829.325" height="552.875" x="0" y="0" fill="rgb(0, 57, 166)"></rect><g transform="translate(414.6625,276.4375) rotate(0) scale(2.094255050505051)"><path d="m -37.625526,-90.854409 c -2.46097,9.624577 0.25166,17.547654 4.95519,25.013242 3.63711,5.772955 6.02684,11.92511 5.91314,18.535121 -1.65447,0.932933 -3.23213,1.938544 -4.75504,3.020699 l -38.01177,-25.247819 25.51917,37.592396 c -0.4585,0.633055 -0.90521,1.291033 -1.3353,1.942055 -7.23811,-3.260622 -14.03275,-3.907166 -20.50739,-2.654711 -9.15283,1.770522 -16.923519,-0.146389 -25.037808,-4.982521 5.065444,8.545776 12.622728,12.228143 21.227588,14.181231 6.66723,1.5133 12.69375,4.168787 17.29283,8.941387 -0.50042,1.79838 -0.91371,3.61733 -1.22797,5.4638105 l -44.742447,9.07305999 44.641587,8.53705001 c 0.1227,0.76803 0.27054,1.5338195 0.42738,2.3005695 -7.42582,2.80955 -12.70538,7.14605 -16.39885,12.61122 -5.22009,7.72396 -12.033563,11.86516 -21.190873,14.18317 9.624566,2.46099 17.534363,-0.2837 24.999963,-4.98723 5.77297,-3.6371 11.92512,-6.02684 18.53511,-5.91314 0.93294,1.65446 1.93854,3.23214 3.0207,4.75505 l -25.23454,38.04381 37.61117,-25.56449 c 0.62816,0.45463 1.26416,0.9219 1.91001,1.34857 -3.26062,7.23812 -3.8939,14.06477 -2.64144,20.53943 1.77051,9.15285 -0.15963,16.89154 -4.99579,25.00579 8.54579,-5.06538 12.22817,-12.6227 14.18123,-21.2276 1.5133,-6.66725 4.16879,-12.69377 8.94138,-17.29285 1.80201,0.50186 3.6135,0.91305 5.4638093,1.22796 L 0.00858351,98.333333 8.5456335,53.691731 c 0.76804,-0.12269 1.5338205,-0.27054 2.3005805,-0.42737 2.80796,7.42802 7.14731,12.70622 12.6112,16.39886 7.72398,5.22007 11.86519,12.03357 14.1832,21.19086 2.46099,-9.62454 -0.2837,-17.53437 -4.98723,-24.99995 -3.64418,-5.78424 -6.00721,-11.91772 -5.88111,-18.54841 1.64364,-0.92821 3.20935,-1.93185 4.72301,-3.00742 l 38.04379,25.23455 -25.53244,-37.62445 c 0.44862,-0.62054 0.89521,-1.25897 1.31656,-1.89674 7.24016,3.27004 14.06145,3.89453 20.53941,2.64144 9.15282,-1.77059 16.89152,0.15971 25.005766,4.9958 -5.065426,-8.54578 -12.609436,-12.1961 -21.214326,-14.14919 -6.65973,-1.51158 -12.6794,-4.21821 -17.27404,-8.98671 0.4992,-1.79529 0.88221,-3.60732 1.19591,-5.4505295 L 98.33164,0.02146149 53.676774,-8.5476385 c -0.12268,-0.76803 -0.27054,-1.5338205 -0.42737,-2.3005805 7.43262,-2.80696 12.70485,-7.14532 16.39885,-12.611197 5.22008,-7.723965 12.04684,-11.833143 21.204136,-14.151143 -9.624566,-2.460977 -17.547646,0.251645 -25.013226,4.955167 -5.78417,3.644188 -11.91769,6.007232 -18.54837,5.881121 -0.92824,-1.643644 -1.93187,-3.209355 -3.00745,-4.722999 l 25.24783,-38.011774 -37.63772,25.500408 c -0.62055,-0.448622 -1.25896,-0.8952 -1.89673,-1.316544 3.26565,-7.236022 3.90716,-14.032743 2.65469,-20.507387 -1.77054,-9.152843 0.14642,-16.923531 4.98254,-25.037809 -8.54577,5.065433 -12.19612,12.609455 -14.14919,21.21431 -1.51499,6.674721 -4.21682,12.72082 -9.00547,17.319387 -1.7898,-0.497067 -3.5944,-0.928522 -5.4317705,-1.241234 L 0.00649351,-98.333642 -8.5626067,-53.67879 c -0.76804,0.1227 -1.5338093,0.270544 -2.3005693,0.427389 -2.80905,-7.427777 -7.14523,-12.704799 -12.61121,-16.398854 -7.72398,-5.220089 -11.83313,-12.046832 -14.15114,-21.204154 z" fill="rgb(253, 200, 47)"></path></g></svg>