<svg id="flag" xmlns="http://www.w3.org/2000/svg" style="height: 446.308px;"><rect width="1115.77" height="446.3" x="0" y="0" fill="rgb(254, 221, 0)"></rect><g transform="translate(223.154,223.15) rotate(0) scale(0.8027122302158273)"><path d="m 91.850522,-18.250908 c -0.008,0.004 -0.0234,0.0258 -0.0312,0.0312 -5.9277,1.521 -5.7433,7.6749 -1.9375,10.3750004 -62.594,0 -158.650005,-1.0625 -179.250002,-1.0625 -11.525,0 -47.987,-1.3750004 -48.688,-1.3750004 7.8196,11.4370006 19.147,13.7660006 33.969,14.0000006 27.801997,0 156.620002,-0.34375 193.280002,-0.34375 -2.6062,4.6275 0.23645,12.0739994 2.2812,13.4379994 0.0434,0.0279 0.11369,0.0715 0.15625,0.0937 0.0763,0.038 0.17693,0.0749 0.25,0.0937 0.0242,0.006 0.07,-0.003 0.0937,0 2.4271,0.5725 3.4951,-1.1846 4.3125,-2.4688 3.937198,0.34703 26.096998,0.66757 28.124998,-0.0312 0.007,-0.003 0.0245,-0.0284 0.0312,-0.0312 1.3718,2.0189 2.7332,3.9264 5.3438,3.5938 4.569,-0.97972 8.1674,-1.477 8.2812,-10.7499994 0,0 -0.46704,-15.8020002 -10.844,-14.8120002 -2.4553,0.37092 -9.3438,1.0625 -9.3438,1.0625 -7.9718,-0.94847 -13.819,-1.0454 -22.780998,-1.375 0.82723,-1.0502 2.287798,-5.3034004 0.5,-6.8438004 -0.46622,-0.38767 -1.1617,-0.60352 -2.125,-0.53125 -0.007,5e-4 -0.0244,-8e-5 -0.0312,0 -0.0136,-6.8e-4 -0.0492,0.002 -0.0625,0 -0.007,-0.002 -0.0248,-0.0293 -0.0312,-0.0312 -0.0257,-0.009 -0.0692,-0.0161 -0.0937,-0.0312 -0.0486,-0.033 -0.11173,-0.10294 -0.15625,-0.15625 -0.011,-0.0139 -0.0517,-0.0475 -0.0625,-0.0625 -0.45322,-0.65987 -0.70068,-2.2777 -1,-2.6875 -0.004,-0.004 -0.0277,-0.0271 -0.0312,-0.0312 -0.004,-0.003 -0.0276,-0.0282 -0.0312,-0.0312 -0.0109,-0.007 -0.0514,-0.0277 -0.0625,-0.0312 -0.004,-3.6e-4 -0.0275,-6e-5 -0.0312,0 -0.004,9.1e-4 -0.0274,-0.001 -0.0312,0 z m 4.25,22.5940006 c 0.0109,-0.005 0.0202,0.005 0.0312,0 9.131898,0.44551 17.711998,0.0857 26.843998,0.53125 1.4473,1.2303 0.72345,4.0484 -0.21875,4.5625 -0.0422,0.0211 -0.11339,0.051 -0.15625,0.0625 -0.0344,0.008 -0.0905,-10e-4 -0.125,0 -0.0345,-7e-4 -0.0905,0.008 -0.125,0 -2.9694,-0.0746 -4.6869,-0.14417 -7.6562,-0.21875 -0.005,-0.14772 -0.0215,-0.30707 -0.0625,-0.4375 -0.70371,-2.0856 -5.8008,-1.9461 -7,-0.3125 -0.0166,0.0235 -0.0475,0.0696 -0.0625,0.0937 -0.0192,0.0325 -0.0463,0.0915 -0.0625,0.125 -0.0193,0.0422 -0.0482,0.11238 -0.0625,0.15625 -0.0187,0.0619 -0.0229,0.15372 -0.0312,0.21875 -0.008,0.0748 -0.0379,0.17113 -0.0312,0.25 -4.0086,0.4818 -7.6164,-0.13309 -11.624998,-0.28125 -1.1761,-1.4641 -1.0388,-4.1134 0.34375,-4.75 z" fill="rgb(198, 12, 48)"></path></g><g transform="translate(892.616,223.15) rotate(0) scale(0.8027122302158273)"><path d="m 91.850522,-18.250908 c -0.008,0.004 -0.0234,0.0258 -0.0312,0.0312 -5.9277,1.521 -5.7433,7.6749 -1.9375,10.3750004 -62.594,0 -158.650005,-1.0625 -179.250002,-1.0625 -11.525,0 -47.987,-1.3750004 -48.688,-1.3750004 7.8196,11.4370006 19.147,13.7660006 33.969,14.0000006 27.801997,0 156.620002,-0.34375 193.280002,-0.34375 -2.6062,4.6275 0.23645,12.0739994 2.2812,13.4379994 0.0434,0.0279 0.11369,0.0715 0.15625,0.0937 0.0763,0.038 0.17693,0.0749 0.25,0.0937 0.0242,0.006 0.07,-0.003 0.0937,0 2.4271,0.5725 3.4951,-1.1846 4.3125,-2.4688 3.937198,0.34703 26.096998,0.66757 28.124998,-0.0312 0.007,-0.003 0.0245,-0.0284 0.0312,-0.0312 1.3718,2.0189 2.7332,3.9264 5.3438,3.5938 4.569,-0.97972 8.1674,-1.477 8.2812,-10.7499994 0,0 -0.46704,-15.8020002 -10.844,-14.8120002 -2.4553,0.37092 -9.3438,1.0625 -9.3438,1.0625 -7.9718,-0.94847 -13.819,-1.0454 -22.780998,-1.375 0.82723,-1.0502 2.287798,-5.3034004 0.5,-6.8438004 -0.46622,-0.38767 -1.1617,-0.60352 -2.125,-0.53125 -0.007,5e-4 -0.0244,-8e-5 -0.0312,0 -0.0136,-6.8e-4 -0.0492,0.002 -0.0625,0 -0.007,-0.002 -0.0248,-0.0293 -0.0312,-0.0312 -0.0257,-0.009 -0.0692,-0.0161 -0.0937,-0.0312 -0.0486,-0.033 -0.11173,-0.10294 -0.15625,-0.15625 -0.011,-0.0139 -0.0517,-0.0475 -0.0625,-0.0625 -0.45322,-0.65987 -0.70068,-2.2777 -1,-2.6875 -0.004,-0.004 -0.0277,-0.0271 -0.0312,-0.0312 -0.004,-0.003 -0.0276,-0.0282 -0.0312,-0.0312 -0.0109,-0.007 -0.0514,-0.0277 -0.0625,-0.0312 -0.004,-3.6e-4 -0.0275,-6e-5 -0.0312,0 -0.004,9.1e-4 -0.0274,-0.001 -0.0312,0 z m 4.25,22.5940006 c 0.0109,-0.005 0.0202,0.005 0.0312,0 9.131898,0.44551 17.711998,0.0857 26.843998,0.53125 1.4473,1.2303 0.72345,4.0484 -0.21875,4.5625 -0.0422,0.0211 -0.11339,0.051 -0.15625,0.0625 -0.0344,0.008 -0.0905,-10e-4 -0.125,0 -0.0345,-7e-4 -0.0905,0.008 -0.125,0 -2.9694,-0.0746 -4.6869,-0.14417 -7.6562,-0.21875 -0.005,-0.14772 -0.0215,-0.30707 -0.0625,-0.4375 -0.70371,-2.0856 -5.8008,-1.9461 -7,-0.3125 -0.0166,0.0235 -0.0475,0.0696 -0.0625,0.0937 -0.0192,0.0325 -0.0463,0.0915 -0.0625,0.125 -0.0193,0.0422 -0.0482,0.11238 -0.0625,0.15625 -0.0187,0.0619 -0.0229,0.15372 -0.0312,0.21875 -0.008,0.0748 -0.0379,0.17113 -0.0312,0.25 -4.0086,0.4818 -7.6164,-0.13309 -11.624998,-0.28125 -1.1761,-1.4641 -1.0388,-4.1134 0.34375,-4.75 z" fill="rgb(198, 12, 48)"></path></g><path d="M 0,0 1115.77,0 1115.77,446.3 0,446.3 Z M 66.9462,66.9462 1048.8238,66.9462 1048.8238,379.3538 66.9462,379.3538 Z" fill="rgb(0, 101, 189)" fill-rule="evenodd"></path><g transform="translate(557.885,223.15) rotate(0) scale(1.9237413793103448)"><path d="m 3.4003054,-47.0438 -6.8125003,0.0937 3.40625018,6.75 3.40625012,-6.84375 z m -3.40625012,6.84375 0,0.0312 0,0.0312 6.87500012,3.375 -0.0937,-6.8125 -6.78125012,3.375 z m 0,0.0625 -3.00000018,6.03125 a 9.5711477,9.5711477 0 0 0 -6.4374997,9.03125 9.5711477,9.5711477 0 0 0 1.9062497,6.125 l 0,6.21875 c -0.6920397,-0.39818 -1.3912897,-0.78878 -2.0937497,-1.15625 a 3.515625,3.515625 0 0 0 1.25,-2.6875 3.5128502,3.5128502 0 0 0 -3.4062504,-3.53125 3.5128502,3.5128502 0 0 0 -3.625,3.53125 3.515625,3.515625 0 0 0 0,0.0937 c -0.78298,-0.30449 -1.55911,-0.61145 -2.34375,-0.875 a 3.515625,3.515625 0 0 0 1.6875,-2.96875 3.5128502,3.5128502 0 0 0 -3.75,-3.5 3.5128502,3.5128502 0 0 0 -3.28125,3.5 3.515625,3.515625 0 0 0 0.375,1.59375 c -1.20848,-0.26781 -2.40683,-0.49799 -3.59375,-0.65625 a 3.515625,3.515625 0 0 0 1.90625,-3.125 3.5128502,3.5128502 0 0 0 -3.75,-3.5 3.5128502,3.5128502 0 0 0 -3.28125,3.5 3.515625,3.515625 0 0 0 1.4375,2.8125 c -0.74424,-0.0245 -1.49266,-0.0251 -2.21875,0 -0.40123,0.0139 -0.79223,0.0637 -1.1875,0.0937 a 3.515625,3.515625 0 0 0 0.65625,-2.03115 3.5128502,3.5128502 0 0 0 -3.75,-3.5 3.5128502,3.5128502 0 0 0 -3.28125,3.5 3.515625,3.515625 0 0 0 1.4375,2.84375 c -0.65736,0.18081 -1.31189,0.39172 -1.9375,0.625 -0.36182,0.13492 -0.7126,0.28183 -1.0625,0.4375 a 3.515625,3.515625 0 0 0 0.0312,-0.375 3.5128502,3.5128502 0 0 0 -3.75,-3.53125 3.5128502,3.5128502 0 0 0 -3.28125,3.53125 3.515625,3.515625 0 0 0 2.4375,3.34375 c -0.64645,0.5916 -1.26662,1.23703 -1.8125,1.9375 a 3.5128502,3.5128502 0 0 0 -3.5,-2.21875 3.5128502,3.5128502 0 0 0 -3.25,3.5 3.5128502,3.5128502 0 0 0 4.34375,3.09375 c -0.17426,0.47492 -0.33216,0.96414 -0.46875,1.46875 -0.0747,0.27612 -0.12379,0.55956 -0.1875,0.84375 a 3.5128502,3.5128502 0 0 0 -3.0625,-1.4375 3.5128502,3.5128502 0 0 0 -3.28125,3.5 3.515625,3.515625 0 0 0 5.78125,2.6875 c -0.0153,1.15659 0.052,2.36197 0.1875,3.625 a 3.5128502,3.5128502 0 0 0 -2.90625,-1.25 3.5128502,3.5128502 0 0 0 -3.28125,3.5 3.515625,3.515625 0 0 0 6.78125,1.34375 c 0.20091,0.98233 0.43381,2.02248 0.71875,3.0625 a 3.5128502,3.5128502 0 0 0 -0.0625,0 3.5128502,3.5128502 0 0 0 -3.25,3.5 3.515625,3.515625 0 0 0 4.3125,3.46875 l 8.25,20.78125 0.0625,-0.0312 7.1875,1.125 -4.9375,4.78125 1.78125,4.53125 c 10.53393,-1.57744 21.74234,-4.4375 36.53125028,-4.4375 14.52930972,0 25.93481972,2.86006 36.46874972,4.4375 l 1.78125,-4.53125 -4.9375,-4.78125 7.1875,-1.125 0.0625,0.0312 8.375,-21.125 a 3.5128502,3.5128502 0 0 0 4.1875,-3.125 3.5128502,3.5128502 0 0 0 -3.3125,-3.5 c 0.28555,-1.04225 0.54883,-2.07819 0.75,-3.0625 a 3.515625,3.515625 0 0 0 6.75,-1.34375 3.5128502,3.5128502 0 0 0 -3.625,-3.5 3.5128502,3.5128502 0 0 0 -2.5625,1.21875 c 0.13315,-1.25175 0.20268,-2.44668 0.1875,-3.59375 a 3.515625,3.515625 0 0 0 5.78125,-2.6875 3.5128502,3.5128502 0 0 0 -3.625,-3.5 3.5128502,3.5128502 0 0 0 -2.71875,1.40625 c -0.0618,-0.27391 -0.11539,-0.5461 -0.1875,-0.8125 -0.10336,-0.38185 -0.21868,-0.76014 -0.34375,-1.125 a 3.515625,3.515625 0 0 0 4.25,-3.4375 3.5128502,3.5128502 0 0 0 -3.625,-3.5 3.5128502,3.5128502 0 0 0 -3.15625,2.21875 c -0.54588,-0.70047 -1.16605,-1.3459 -1.8125,-1.9375 a 3.515625,3.515625 0 0 0 2.4375,-3.34375 3.5128502,3.5128502 0 0 0 -3.625,-3.53125 3.5128502,3.5128502 0 0 0 -3.40625,3.53125 3.515625,3.515625 0 0 0 0.0312,0.375 c -0.3499,-0.15567 -0.70068,-0.30258 -1.0625,-0.4375 -0.61629,-0.22981 -1.25912,-0.44611 -1.90625,-0.625 a 3.515625,3.515625 0 0 0 1.40625,-2.84375 3.5128502,3.5128502 0 0 0 -3.625,-3.5 3.5128502,3.5128502 0 0 0 -3.40625,3.5 3.515625,3.515625 0 0 0 0.65625,2.03125 c -0.39527,-0.03 -0.78627,-0.0799 -1.1875,-0.0937 -0.71845,-0.0248 -1.45118,-0.0235 -2.1875,0 a 3.515625,3.515625 0 0 0 1.40625,-2.8125 3.5128502,3.5128502 0 0 0 -3.625,-3.5 3.5128502,3.5128502 0 0 0 -3.40625,3.5 3.515625,3.515625 0 0 0 1.875,3.125 c -1.17854,0.15742 -2.3627,0.39109 -3.5625,0.65625 a 3.515625,3.515625 0 0 0 0.375,-1.59375 3.5128502,3.5128502 0 0 0 -3.625,-3.5 3.5128502,3.5128502 0 0 0 -3.40625,3.5 3.515625,3.515625 0 0 0 1.625,2.96875 c -0.77168,0.2594 -1.51123,0.54474 -2.28125,0.84375 a 3.515625,3.515625 0 0 0 0,-0.0625 3.5128502,3.5128502 0 0 0 -3.625,-3.53125 3.5128502,3.5128502 0 0 0 -3.4062496,3.53125 3.515625,3.515625 0 0 0 1.25,2.65625 c -0.62249,0.3252 -1.22937,0.68179 -1.84375,1.03125 l 0,-6.0625 a 9.5711477,9.5711477 0 0 0 1.90625,-6.125 9.5711477,9.5711477 0 0 0 -6.75,-9.15625 L -0.00604472,-40.1375 z M 40.587805,36.6437 l -2.3125,5.875 0.3125,0.28125 7.15625,-1.21875 -5.15625,-4.9375 z m -78.875,5.875 -2.3125,-5.875 -5.15625,4.9375 7.15625,1.21875 0.3125,-0.28125 z m 31.4062501,-86.09375 0,6.8125 6.84375018,-3.40625 -6.84375018,-3.40625 z m 6.09374988,12.46875 1.81250032,0 0,0.9375 0,4.3125 c 1.8809201,0.12515 3.2295501,0.62455 4.1250001,1.15625 1.03467,0.61437 1.53125,1.375 1.53125,1.375 l 0.5,0.78125 -1.5625,0.96875 -0.5,-0.78125 c 0,0 -0.16033,-0.30709 -0.90625,-0.75 -0.74592,-0.44291 -2.01305,-0.9375 -4.09375012,-0.9375 -2.21347018,0 -3.50952018,0.45475 -4.21875018,0.84375 -0.35461,0.19447 -0.5383,0.38203 -0.65625,0.5 -0.118,0.1179 -0.125,0.0937 -0.125,0.0937 l -0.46875,0.78125 -1.5625,-0.90625 0.46875,-0.8125 c 0,0 0.13826,-0.23197 0.375,-0.46875 0.23674,-0.23678 0.58589,-0.53398 1.09375,-0.8125 0.87926,-0.4822 2.24963,-0.88952 4.18749988,-1 l 0,-4.34375 0,-0.9375 z m 0.6562503,13.03125 a 3.2418388,3.2418388 0 0 1 0.34375,0 3.2418388,3.2418388 0 0 1 3.15625012,3.25 3.25,3.25 0 0 1 -1.0625,2.375 3.2418388,3.2418388 0 0 1 1.0625,2.375 3.25,3.25 0 0 1 -1.8125,2.9375 3.2418388,3.2418388 0 0 1 1.8125,2.875 3.25,3.25 0 0 1 -3.00000012,3.25 3.2418388,3.2418388 0 0 1 3.00000012,3.21875 3.2500002,3.2500002 0 0 1 -6.5000003,0 3.2418388,3.2418388 0 0 1 3.03125018,-3.21875 3.25,3.25 0 0 1 -3.03125018,-3.25 3.2418388,3.2418388 0 0 1 1.8125,-2.875 3.25,3.25 0 0 1 -1.8125,-2.9375 3.2418388,3.2418388 0 0 1 1.0625,-2.34375 3.25,3.25 0 0 1 -1.0625,-2.40625 3.2418388,3.2418388 0 0 1 3.00000018,-3.25 z m -32.12500028,2.125 c 7.4342,-0.22922 16.62997,2.4395 24.7187501,7.5 l 0,14.46875 -0.125,0 c 0.0436,0.0771 0.0818,0.14209 0.125,0.21875 l 0,0.625 0.34375,0 c 2.05415,3.67667 3.6128,6.79058 3.375,7.8125 -0.011,0.0103 -0.052,0.0522 -0.0625,0.0625 1.1e-4,0.005 -3.9e-4,0.0562 0,0.0625 -0.011,0.0101 -0.0522,0.0526 -0.0625,0.0625 1.7e-4,0.005 -5.6e-4,0.056 0,0.0625 -0.007,-6e-4 -0.0573,1.7e-4 -0.0625,0 1.8e-4,0.005 -7e-4,0.0246 0,0.0312 -0.006,-4.6e-4 -0.026,1.3e-4 -0.0312,0 -0.0198,0.0106 -0.10446,0.0525 -0.125,0.0625 -0.0129,-3.1e-4 -0.0584,-5.4e-4 -0.0625,0 -0.0128,-1.5e-4 -0.0581,-2.2e-4 -0.0625,0 -0.0279,3.6e-4 -0.0631,0.003 -0.0937,0 -0.97437,-0.12445 -3.22703,-1.64192 -7.1875001,-5.15625 l 0,17.4375 c 4.3126901,-3.76153 6.8732801,-5.14258 8.0937501,-5.15625 0.0584,10e-4 0.15872,-0.004 0.21875,0 0.0464,0.0128 0.15427,0.0509 0.1875,0.0625 0.0129,0.006 0.0491,0.0545 0.0625,0.0625 0.0264,0.0173 0.0691,0.0103 0.0937,0.0312 0.0349,0.0325 0.0982,0.0947 0.125,0.125 0.009,0.0118 0.052,0.0486 0.0625,0.0625 0.0147,0.0225 0.0507,0.10277 0.0625,0.125 0.011,0.0198 0.0213,0.0736 0.0312,0.0937 -1.7e-4,0.0197 5.9e-4,0.10497 0,0.125 0.007,0.0258 0.0504,0.0934 0.0625,0.125 0.002,0.008 -0.002,0.0246 0,0.0312 -4.4e-4,0.0216 0.004,0.10017 0,0.125 -0.0129,0.0872 -0.0522,0.20442 -0.0625,0.28125 -0.3878,2.51624 -4.66449,7.875 -8.9375001,7.875 -5.54418,0 -9.21875,-4.79985 -9.21875,-7.8125 0,-0.82699 0.13007,-1.44616 0.34375,-1.875 0.0463,-0.0862 0.10155,-0.24193 0.15625,-0.3125 0.011,-0.0136 0.0509,-0.0183 0.0625,-0.0312 0.0185,-0.019 0.0949,-0.0955 0.125,-0.125 0.0444,-0.0327 0.11898,-0.10117 0.15625,-0.125 0.0947,-0.0552 0.22507,-0.11502 0.34375,-0.15625 0.06,-0.0191 0.15799,-0.0507 0.21875,-0.0625 0.0303,-0.005 0.0953,0.002 0.125,0 1.39192,-0.0705 3.53838,1.25784 5.6875,2.75 0.47182,-8.73493 -1.58396,-13.21843 -8.84375,-8.90625 0.3475,-3.9246 -0.0257,-6.83903 -1.53125,-8.125 -0.62942,-0.51382 -1.48555,-0.76622 -2.53125,-0.6875 -0.0112,8.4e-4 -0.0511,-0.001 -0.0625,0 -0.023,0.003 -0.0389,-0.004 -0.0625,0 -0.14161,0.0267 -0.32556,0.0697 -0.46875,0.0937 -5.07974,0.85147 -2.87827,6.17173 -0.84375,9.8125 -2.27541,0.30679 -3.80143,0.98008 -4.75,1.84375 -0.0844,0.0791 -0.23737,0.19901 -0.3125,0.28125 -2.84491,3.21377 1.09499,8.63541 3.625,9.0625 0.50219,-1.8472 1.45781,-3.02908 2.34375,-3.53125 0.11897,-0.064 0.29073,-0.14904 0.40625,-0.1875 0.0492,-0.0149 0.1393,-0.0523 0.1875,-0.0625 0.0197,-0.006 0.0694,-0.0528 0.0937,-0.0625 0.007,-0.003 0.056,0.002 0.0625,0 0.0413,-0.003 0.14726,-0.001 0.1875,0 0.0199,-3.8e-4 0.0739,-6e-5 0.0937,0 0.02,0.0103 0.10517,0.0518 0.125,0.0625 0.0496,0.0138 0.14062,0.0417 0.1875,0.0625 0.0173,0.008 0.0637,0.0471 0.0937,0.0625 0.0713,0.0452 0.18041,0.0879 0.25,0.15625 0.008,0.009 0.0229,0.0534 0.0312,0.0625 0.0405,0.0468 0.0926,0.13558 0.125,0.1875 0.085,0.14553 0.16885,0.36156 0.21875,0.5625 0.0295,0.13107 0.0495,0.31483 0.0625,0.46875 0.31428,3.71865 -0.27836,10.15625 -6.40625,10.15625 -4.63927,0 -7.93816,-4.37069 -7.9375,-6.5 10e-4,-0.0507 -0.005,-0.10834 0,-0.15625 -4e-4,-0.02 1.1e-4,-0.10516 0,-0.125 0.0103,-0.0202 0.0519,-0.10517 0.0625,-0.125 -1.3e-4,-0.006 4.7e-4,-0.0256 0,-0.0312 0.0275,-0.0657 0.0931,-0.19951 0.125,-0.25 0.0103,-0.011 0.0521,-0.0524 0.0625,-0.0625 0.0145,-0.0147 0.0197,-0.0191 0.0312,-0.0312 0.0233,-0.0253 0.10066,-0.10426 0.125,-0.125 0.0101,-0.011 0.0523,-0.0522 0.0625,-0.0625 0.0444,-0.0187 0.11539,-0.0472 0.15625,-0.0625 0.0198,-0.011 0.10487,-0.0524 0.125,-0.0625 0.0197,1.5e-4 0.10497,-5.1e-4 0.125,0 0.0599,-0.004 0.16459,0.001 0.21875,0 0.0287,2e-5 0.0952,-10e-4 0.125,0 0.92805,0.0604 2.41717,0.76525 4.53125,2.375 l -4.9375,-15 c -1.86347,4.75937 -3.08954,6.86909 -3.78125,7.34375 -0.005,0.005 -0.0577,0.0567 -0.0625,0.0625 -0.005,-8e-5 -0.0564,4.8e-4 -0.0625,0 -0.005,-4e-5 -0.0564,3.2e-4 -0.0625,0 -0.005,0 -0.0563,1.7e-4 -0.0625,0 -0.008,4.1e-4 -0.0235,1.9e-4 -0.0312,0 -0.005,9e-5 -0.0562,-2.1e-4 -0.0625,0 -0.005,1.4e-4 -0.0562,-4.3e-4 -0.0625,0 -0.0156,-0.0156 -0.0577,-0.0588 -0.0625,-0.0625 -0.006,-0.006 -0.0568,-0.0242 -0.0625,-0.0312 -0.0101,-0.01 -0.0525,-0.0525 -0.0625,-0.0625 6.1e-4,-0.006 -1.7e-4,-0.0573 0,-0.0625 -0.007,-0.0151 -0.0161,-0.0944 -0.0312,-0.125 -0.005,-0.0136 0.005,-0.0481 0,-0.0625 -0.56961,-1.88968 0.53496,-8.9827 1.46875,-11.28125 l -3.59375,1.75 c -2.83987,-7.88385 -3.27033,-13.86247 -2.125,-18.09375 1.21829,-4.50083 4.02636,-7.21372 8.0625,-8.71875 1.97574,-0.73673 4.27193,-1.14234 6.75,-1.21875 z m 62.6875,0 c 3.18375,-0.0953 6.11197,0.30497 8.5625,1.21875 4.03614,1.50503 6.84421,4.21792 8.0625,8.71875 1.14533,4.23128 0.71487,10.2099 -2.125,18.09375 l -3.59375,-1.75 c 0.93381,2.29855 2.03837,9.39157 1.46875,11.28125 -0.006,0.0143 0.005,0.0488 0,0.0625 -0.0147,0.0306 -0.0242,0.10987 -0.0312,0.125 1.7e-4,0.005 -6e-4,0.0565 0,0.0625 -0.009,0.0101 -0.0524,0.053 -0.0625,0.0625 -0.0147,0.0152 -0.0535,0.0223 -0.0625,0.0312 -0.006,0.004 -0.0471,0.0469 -0.0625,0.0625 -0.006,-3.5e-4 -0.0573,1.3e-4 -0.0625,0 -0.006,-2.1e-4 -0.0573,9e-5 -0.0625,0 -0.007,1.9e-4 -0.0233,4.1e-4 -0.0312,0 -0.006,1.7e-4 -0.0573,0 -0.0625,0 -0.005,3.2e-4 -0.0575,-4e-5 -0.0625,0 -0.0204,-0.009 -0.0951,-0.0467 -0.125,-0.0625 -0.69172,-0.47466 -1.85528,-2.58438 -3.71875,-7.34375 l -5,15 c 1.97425,-1.50328 3.4388,-2.24083 4.375,-2.375 0.0657,-0.007 0.15799,0.002 0.21875,0 0.0297,-6.4e-4 0.0966,-7e-4 0.125,0 0.0228,10e-4 0.0616,9.9e-4 0.0937,0 0.007,4e-5 0.056,-3.3e-4 0.0625,0 0.02,-5.1e-4 0.10537,1.5e-4 0.125,0 0.0202,0.011 0.10517,0.052 0.125,0.0625 0.0305,0.0147 0.0772,0.0549 0.0937,0.0625 0.005,-2e-4 0.0568,7e-4 0.0625,0 0.011,0.011 0.0524,0.0522 0.0625,0.0625 0.0244,0.0208 0.10166,0.0997 0.125,0.125 0.0255,0.0235 0.0732,0.0695 0.0937,0.0937 0.011,0.011 0.0522,0.0524 0.0625,0.0625 0.0184,0.0444 0.0478,0.14839 0.0625,0.1875 -4.6e-4,0.006 1.2e-4,0.0263 0,0.0312 0.011,0.0198 0.0524,0.10477 0.0625,0.125 -1.1e-4,0.0198 4e-4,0.10497 0,0.125 0.006,0.0479 -0.001,0.10577 0,0.15625 6.6e-4,2.12931 -3.29822,6.5 -7.9375,6.5 -6.12789,0 -6.72052,-6.4376 -6.40625,-10.15625 0.0129,-0.15383 0.0331,-0.33764 0.0625,-0.46875 0.0367,-0.12427 0.11274,-0.30749 0.15625,-0.40625 0.0147,-0.0401 0.0469,-0.11839 0.0625,-0.15625 0.0325,-0.0519 0.0845,-0.14073 0.125,-0.1875 0.009,-0.009 0.0227,-0.0536 0.0312,-0.0625 0.0696,-0.0683 0.17878,-0.11103 0.25,-0.15625 0.0299,-0.0152 0.0765,-0.054 0.0937,-0.0625 0.02,-0.0105 0.10477,-0.0525 0.125,-0.0625 0.005,4.6e-4 0.0575,-1.4e-4 0.0625,0 0.0198,-0.0106 0.10497,-0.0522 0.125,-0.0625 0.006,-3.1e-4 0.0238,8e-5 0.0312,0 0.033,7.9e-4 0.10477,6.1e-4 0.125,0 0.0204,4e-5 0.0953,-2.3e-4 0.125,0 0.007,0.002 0.0551,-0.003 0.0625,0 0.0244,0.01 0.0741,0.0565 0.0937,0.0625 0.1821,0.0385 0.45109,0.14102 0.65625,0.25 0.0507,0.0285 0.10815,0.0615 0.15625,0.0937 0.81779,0.56896 1.66144,1.7324 2.125,3.4375 2.39958,-0.40507 6.05467,-5.28708 4,-8.53125 -0.10353,-0.1578 -0.24301,-0.38216 -0.375,-0.53125 -0.0751,-0.0822 -0.22815,-0.20209 -0.3125,-0.28125 -0.94857,-0.86368 -2.4746,-1.53697 -4.75,-1.84375 2.0345,-3.64077 4.23599,-8.96102 -0.84375,-9.8125 -4.07302,-0.68272 -5.17478,2.86258 -4.65625,8.71875 -7.25979,-4.31218 -9.31556,0.17132 -8.84375,8.90625 2.39424,-1.66237 4.80115,-3.08263 6.15625,-2.625 0.0233,0.008 0.0712,0.0215 0.0937,0.0312 0.0334,0.0154 0.0931,0.0443 0.125,0.0625 0.0525,0.0317 0.10797,0.0856 0.15625,0.125 0.0301,0.0295 0.10647,0.10596 0.125,0.125 0.011,0.0129 0.0513,0.0178 0.0625,0.0312 0.0547,0.0706 0.11018,0.22634 0.15625,0.3125 0.21368,0.42884 0.34375,1.04801 0.34375,1.875 0,3.01265 -3.67458,7.8125 -9.21875,7.8125 -4.2730196,0 -8.5809496,-5.35876 -8.9687496,-7.875 -0.011,-0.0768 -0.0177,-0.19408 -0.0312,-0.28125 -0.004,-0.0248 4.4e-4,-0.10337 0,-0.125 0.002,-0.007 -0.002,-0.0238 0,-0.0312 0.0129,-0.0317 0.0236,-0.0993 0.0312,-0.125 -5.8e-4,-0.02 1.7e-4,-0.10537 0,-0.125 0.009,-0.0202 0.0522,-0.0739 0.0625,-0.0937 0.011,-0.0223 0.0471,-0.10247 0.0625,-0.125 0.011,-0.014 0.0533,-0.0507 0.0625,-0.0625 0.007,-0.009 0.0542,-0.0539 0.0625,-0.0625 0.0147,-0.0141 0.0448,-0.0463 0.0625,-0.0625 0.009,-0.008 0.0215,-0.0233 0.0312,-0.0312 0.0251,-0.0186 0.0986,-0.05 0.125,-0.0625 0.0332,-0.0116 0.14105,-0.0496 0.1875,-0.0625 0.06,-0.004 0.16037,10e-4 0.21875,0 1.22047,0.0136 3.78107,1.39473 8.0937496,5.15625 l 0,-17.4375 c -3.9604696,3.51433 -6.2131196,5.03181 -7.1874996,5.15625 -0.0306,0.003 -0.0658,3.6e-4 -0.0937,0 -0.004,-2.2e-4 -0.0504,-1.5e-4 -0.0625,0 -0.004,-5.4e-4 -0.0504,-3.1e-4 -0.0625,0 -0.009,-0.0103 -0.0529,-0.0518 -0.0625,-0.0625 -0.006,1.2e-4 -0.0562,-3.8e-4 -0.0625,0 -0.011,-0.0101 -0.0215,-0.0208 -0.0312,-0.0312 -0.006,1.7e-4 -0.0561,-6e-4 -0.0625,0 5.7e-4,-0.006 -1.7e-4,-0.0572 0,-0.0625 -0.011,-0.01 -0.0524,-0.0523 -0.0625,-0.0625 3.9e-4,-0.006 -1.1e-4,-0.0573 0,-0.0625 -0.011,-0.0103 -0.052,-0.0522 -0.0625,-0.0625 -0.2378,-1.02192 1.32084,-4.13582 3.375,-7.8125 l 0.59375,0 0,-15.46875 c 7.3780396,-4.55764 15.6519996,-7.13402 22.6562496,-7.34375 z m -31.09374972,46.71875 6.50000012,3.25 -6.50000012,3.25 -6.46875018,-3.25 6.46875018,-3.25 z M -20.162195,32.86245 c 1.86027,5.9e-4 3.44351,0.72188 3.75,1.875 0.41483,1.53583 -1.53264,3.56376 -4.09375,4.25 -2.5611,0.68625 -5.27884,-0.0875 -5.6875,-1.625 -0.41483,-1.53583 1.56389,-3.56376 4.125,-4.25 0.64027,-0.17156 1.28616,-0.2502 1.90625,-0.25 z m 40.96875,0.125 a 5.0600138,3.0360082 0 0 1 0.65625,0 5.0600138,3.0360082 0 0 1 4.71875,4.375 5.3575525,3.2145315 0 0 1 -9.78125,-2.625 5.0600138,3.0360082 0 0 1 4.40625,-1.75 z" fill="rgb(0, 101, 189)"></path></g></svg>